<svg width="100" height="127" viewBox="0 0 100 127" fill="none" xmlns="http://www.w3.org/2000/svg">
<circle cx="50" cy="70" r="50" fill="#020202"/>
<path d="M36.768 51.52H34.368C33.664 49.664 32.928 47.488 32.16 44.992C31.456 42.496 30.848 40.128 30.336 37.888C32.576 35.968 35.264 34.464 38.4 33.376C41.536 32.224 44.928 31.648 48.576 31.648C51.776 31.648 54.528 32.096 56.832 32.992C59.136 33.888 61.024 35.104 62.496 36.64C64.032 38.176 65.152 39.968 65.856 42.016C66.56 44 66.912 46.08 66.912 48.256C66.912 51.84 66.08 55.52 64.416 59.296C62.752 63.072 60.672 66.752 58.176 70.336C55.744 73.856 53.088 77.184 50.208 80.32C47.328 83.456 44.672 86.208 42.24 88.576L38.208 92.32V92.704L43.584 92.128H60.096L64.8 81.376H67.2C67.328 82.784 67.456 84.32 67.584 85.984C67.712 87.648 67.808 89.344 67.872 91.072C68 92.736 68.096 94.368 68.16 95.968C68.224 97.504 68.256 98.848 68.256 100H28.608V96.928C30.016 95.456 31.712 93.664 33.696 91.552C35.744 89.44 37.856 87.104 40.032 84.544C42.208 81.984 44.352 79.264 46.464 76.384C48.64 73.504 50.56 70.592 52.224 67.648C53.888 64.64 55.232 61.664 56.256 58.72C57.344 55.776 57.888 52.96 57.888 50.272C57.888 48.416 57.632 46.656 57.12 44.992C56.672 43.328 55.968 41.888 55.008 40.672C54.048 39.392 52.864 38.4 51.456 37.696C50.112 36.992 48.544 36.64 46.752 36.64C45.408 36.64 44.224 36.736 43.2 36.928C42.176 37.12 41.056 37.408 39.84 37.792L36.768 51.52Z" fill="white"/>
</svg>
